solid OpenSCAD_Model
  facet normal 1 -0 0
    outer loop
      vertex 40 30 80
      vertex 40 35 75
      vertex 40 35 80
    endloop
  endfacet
  facet normal 1 0 0
    outer loop
      vertex 40 35 75
      vertex 40 30 80
      vertex 40 30 75
    endloop
  endfacet
  facet normal -1 0 0
    outer loop
      vertex 90 30 75
      vertex 90 35 80
      vertex 90 35 75
    endloop
  endfacet
  facet normal -1 -0 0
    outer loop
      vertex 90 35 80
      vertex 90 30 75
      vertex 90 30 80
    endloop
  endfacet
  facet normal 0 1 -0
    outer loop
      vertex 90 30 75
      vertex 40 30 80
      vertex 90 30 80
    endloop
  endfacet
  facet normal 0 1 0
    outer loop
      vertex 40 30 80
      vertex 90 30 75
      vertex 40 30 75
    endloop
  endfacet
  facet normal 0 -1 0
    outer loop
      vertex 40 35 75
      vertex 90 35 80
      vertex 40 35 80
    endloop
  endfacet
  facet normal 0 -1 -0
    outer loop
      vertex 90 35 80
      vertex 40 35 75
      vertex 90 35 75
    endloop
  endfacet
  facet normal 1 -0 0
    outer loop
      vertex 40 40 80
      vertex 40 45 75
      vertex 40 45 80
    endloop
  endfacet
  facet normal 1 0 0
    outer loop
      vertex 40 45 75
      vertex 40 40 80
      vertex 40 40 75
    endloop
  endfacet
  facet normal -1 0 0
    outer loop
      vertex 90 40 75
      vertex 90 45 80
      vertex 90 45 75
    endloop
  endfacet
  facet normal -1 -0 0
    outer loop
      vertex 90 45 80
      vertex 90 40 75
      vertex 90 40 80
    endloop
  endfacet
  facet normal 0 -1 0
    outer loop
      vertex 40 45 75
      vertex 90 45 80
      vertex 40 45 80
    endloop
  endfacet
  facet normal 0 -1 -0
    outer loop
      vertex 90 45 80
      vertex 40 45 75
      vertex 90 45 75
    endloop
  endfacet
  facet normal 0 1 -0
    outer loop
      vertex 90 40 75
      vertex 40 40 80
      vertex 90 40 80
    endloop
  endfacet
  facet normal 0 1 0
    outer loop
      vertex 40 40 80
      vertex 90 40 75
      vertex 40 40 75
    endloop
  endfacet
  facet normal 1 -0 0
    outer loop
      vertex 40 50 80
      vertex 40 55 75
      vertex 40 55 80
    endloop
  endfacet
  facet normal 1 0 0
    outer loop
      vertex 40 55 75
      vertex 40 50 80
      vertex 40 50 75
    endloop
  endfacet
  facet normal -1 0 0
    outer loop
      vertex 90 50 75
      vertex 90 55 80
      vertex 90 55 75
    endloop
  endfacet
  facet normal -1 -0 0
    outer loop
      vertex 90 55 80
      vertex 90 50 75
      vertex 90 50 80
    endloop
  endfacet
  facet normal 0 -1 0
    outer loop
      vertex 40 55 75
      vertex 90 55 80
      vertex 40 55 80
    endloop
  endfacet
  facet normal 0 -1 -0
    outer loop
      vertex 90 55 80
      vertex 40 55 75
      vertex 90 55 75
    endloop
  endfacet
  facet normal 0 1 -0
    outer loop
      vertex 90 50 75
      vertex 40 50 80
      vertex 90 50 80
    endloop
  endfacet
  facet normal 0 1 0
    outer loop
      vertex 40 50 80
      vertex 90 50 75
      vertex 40 50 75
    endloop
  endfacet
  facet normal 1 -0 0
    outer loop
      vertex 40 60 80
      vertex 40 65 75
      vertex 40 65 80
    endloop
  endfacet
  facet normal 1 0 0
    outer loop
      vertex 40 65 75
      vertex 40 60 80
      vertex 40 60 75
    endloop
  endfacet
  facet normal -1 0 0
    outer loop
      vertex 90 60 75
      vertex 90 65 80
      vertex 90 65 75
    endloop
  endfacet
  facet normal -1 -0 0
    outer loop
      vertex 90 65 80
      vertex 90 60 75
      vertex 90 60 80
    endloop
  endfacet
  facet normal 0 -1 0
    outer loop
      vertex 40 65 75
      vertex 90 65 80
      vertex 40 65 80
    endloop
  endfacet
  facet normal 0 -1 -0
    outer loop
      vertex 90 65 80
      vertex 40 65 75
      vertex 90 65 75
    endloop
  endfacet
  facet normal 0 1 -0
    outer loop
      vertex 90 60 75
      vertex 40 60 80
      vertex 90 60 80
    endloop
  endfacet
  facet normal 0 1 0
    outer loop
      vertex 40 60 80
      vertex 90 60 75
      vertex 40 60 75
    endloop
  endfacet
  facet normal 1 -0 0
    outer loop
      vertex 40 70 80
      vertex 40 75 75
      vertex 40 75 80
    endloop
  endfacet
  facet normal 1 0 0
    outer loop
      vertex 40 75 75
      vertex 40 70 80
      vertex 40 70 75
    endloop
  endfacet
  facet normal -1 0 0
    outer loop
      vertex 90 70 75
      vertex 90 75 80
      vertex 90 75 75
    endloop
  endfacet
  facet normal -1 -0 0
    outer loop
      vertex 90 75 80
      vertex 90 70 75
      vertex 90 70 80
    endloop
  endfacet
  facet normal 0 -1 0
    outer loop
      vertex 40 75 75
      vertex 90 75 80
      vertex 40 75 80
    endloop
  endfacet
  facet normal 0 -1 -0
    outer loop
      vertex 90 75 80
      vertex 40 75 75
      vertex 90 75 75
    endloop
  endfacet
  facet normal 0 1 -0
    outer loop
      vertex 90 70 75
      vertex 40 70 80
      vertex 90 70 80
    endloop
  endfacet
  facet normal 0 1 0
    outer loop
      vertex 40 70 80
      vertex 90 70 75
      vertex 40 70 75
    endloop
  endfacet
  facet normal 1 -0 0
    outer loop
      vertex 40 80 80
      vertex 40 85 75
      vertex 40 85 80
    endloop
  endfacet
  facet normal 1 0 0
    outer loop
      vertex 40 85 75
      vertex 40 80 80
      vertex 40 80 75
    endloop
  endfacet
  facet normal -1 0 0
    outer loop
      vertex 90 80 75
      vertex 90 85 80
      vertex 90 85 75
    endloop
  endfacet
  facet normal -1 -0 0
    outer loop
      vertex 90 85 80
      vertex 90 80 75
      vertex 90 80 80
    endloop
  endfacet
  facet normal 0 -1 0
    outer loop
      vertex 40 85 75
      vertex 90 85 80
      vertex 40 85 80
    endloop
  endfacet
  facet normal 0 -1 -0
    outer loop
      vertex 90 85 80
      vertex 40 85 75
      vertex 90 85 75
    endloop
  endfacet
  facet normal 0 1 -0
    outer loop
      vertex 90 80 75
      vertex 40 80 80
      vertex 90 80 80
    endloop
  endfacet
  facet normal 0 1 0
    outer loop
      vertex 40 80 80
      vertex 90 80 75
      vertex 40 80 75
    endloop
  endfacet
  facet normal 1 -0 0
    outer loop
      vertex 40 90 80
      vertex 40 95 75
      vertex 40 95 80
    endloop
  endfacet
  facet normal 1 0 0
    outer loop
      vertex 40 95 75
      vertex 40 90 80
      vertex 40 90 75
    endloop
  endfacet
  facet normal -1 0 0
    outer loop
      vertex 90 90 75
      vertex 90 95 80
      vertex 90 95 75
    endloop
  endfacet
  facet normal -1 -0 0
    outer loop
      vertex 90 95 80
      vertex 90 90 75
      vertex 90 90 80
    endloop
  endfacet
  facet normal 0 -1 0
    outer loop
      vertex 40 95 75
      vertex 90 95 80
      vertex 40 95 80
    endloop
  endfacet
  facet normal 0 -1 -0
    outer loop
      vertex 90 95 80
      vertex 40 95 75
      vertex 90 95 75
    endloop
  endfacet
  facet normal 0 1 -0
    outer loop
      vertex 90 90 75
      vertex 40 90 80
      vertex 90 90 80
    endloop
  endfacet
  facet normal 0 1 0
    outer loop
      vertex 40 90 80
      vertex 90 90 75
      vertex 40 90 75
    endloop
  endfacet
  facet normal 1 -0 0
    outer loop
      vertex 40 100 80
      vertex 40 105 75
      vertex 40 105 80
    endloop
  endfacet
  facet normal 1 0 0
    outer loop
      vertex 40 105 75
      vertex 40 100 80
      vertex 40 100 75
    endloop
  endfacet
  facet normal -1 0 0
    outer loop
      vertex 90 100 75
      vertex 90 105 80
      vertex 90 105 75
    endloop
  endfacet
  facet normal -1 -0 0
    outer loop
      vertex 90 105 80
      vertex 90 100 75
      vertex 90 100 80
    endloop
  endfacet
  facet normal 0 -1 0
    outer loop
      vertex 40 105 75
      vertex 90 105 80
      vertex 40 105 80
    endloop
  endfacet
  facet normal 0 -1 -0
    outer loop
      vertex 90 105 80
      vertex 40 105 75
      vertex 90 105 75
    endloop
  endfacet
  facet normal 0 1 -0
    outer loop
      vertex 90 100 75
      vertex 40 100 80
      vertex 90 100 80
    endloop
  endfacet
  facet normal 0 1 0
    outer loop
      vertex 40 100 80
      vertex 90 100 75
      vertex 40 100 75
    endloop
  endfacet
  facet normal 1 -0 0
    outer loop
      vertex 40 110 80
      vertex 40 115 75
      vertex 40 115 80
    endloop
  endfacet
  facet normal 1 0 0
    outer loop
      vertex 40 115 75
      vertex 40 110 80
      vertex 40 110 75
    endloop
  endfacet
  facet normal -1 0 0
    outer loop
      vertex 90 110 75
      vertex 90 115 80
      vertex 90 115 75
    endloop
  endfacet
  facet normal -1 -0 0
    outer loop
      vertex 90 115 80
      vertex 90 110 75
      vertex 90 110 80
    endloop
  endfacet
  facet normal 0 1 -0
    outer loop
      vertex 90 110 75
      vertex 40 110 80
      vertex 90 110 80
    endloop
  endfacet
  facet normal 0 1 0
    outer loop
      vertex 40 110 80
      vertex 90 110 75
      vertex 40 110 75
    endloop
  endfacet
  facet normal 0 -1 0
    outer loop
      vertex 40 115 75
      vertex 90 115 80
      vertex 40 115 80
    endloop
  endfacet
  facet normal 0 -1 -0
    outer loop
      vertex 90 115 80
      vertex 40 115 75
      vertex 90 115 75
    endloop
  endfacet
  facet normal 1 -0 0
    outer loop
      vertex 40 120 80
      vertex 40 125 75
      vertex 40 125 80
    endloop
  endfacet
  facet normal 1 0 0
    outer loop
      vertex 40 125 75
      vertex 40 120 80
      vertex 40 120 75
    endloop
  endfacet
  facet normal -1 0 0
    outer loop
      vertex 90 120 75
      vertex 90 125 80
      vertex 90 125 75
    endloop
  endfacet
  facet normal -1 -0 0
    outer loop
      vertex 90 125 80
      vertex 90 120 75
      vertex 90 120 80
    endloop
  endfacet
  facet normal 0 -1 0
    outer loop
      vertex 40 125 75
      vertex 90 125 80
      vertex 40 125 80
    endloop
  endfacet
  facet normal 0 -1 -0
    outer loop
      vertex 90 125 80
      vertex 40 125 75
      vertex 90 125 75
    endloop
  endfacet
  facet normal 0 1 -0
    outer loop
      vertex 90 120 75
      vertex 40 120 80
      vertex 90 120 80
    endloop
  endfacet
  facet normal 0 1 0
    outer loop
      vertex 40 120 80
      vertex 90 120 75
      vertex 40 120 75
    endloop
  endfacet
  facet normal 1 -0 0
    outer loop
      vertex 40 130 80
      vertex 40 135 75
      vertex 40 135 80
    endloop
  endfacet
  facet normal 1 0 0
    outer loop
      vertex 40 135 75
      vertex 40 130 80
      vertex 40 130 75
    endloop
  endfacet
  facet normal -1 0 0
    outer loop
      vertex 90 130 75
      vertex 90 135 80
      vertex 90 135 75
    endloop
  endfacet
  facet normal -1 -0 0
    outer loop
      vertex 90 135 80
      vertex 90 130 75
      vertex 90 130 80
    endloop
  endfacet
  facet normal 0 1 -0
    outer loop
      vertex 90 130 75
      vertex 40 130 80
      vertex 90 130 80
    endloop
  endfacet
  facet normal 0 1 0
    outer loop
      vertex 40 130 80
      vertex 90 130 75
      vertex 40 130 75
    endloop
  endfacet
  facet normal 0 -1 0
    outer loop
      vertex 40 135 75
      vertex 90 135 80
      vertex 40 135 80
    endloop
  endfacet
  facet normal 0 -1 -0
    outer loop
      vertex 90 135 80
      vertex 40 135 75
      vertex 90 135 75
    endloop
  endfacet
  facet normal 1 -0 0
    outer loop
      vertex 40 140 80
      vertex 40 145 75
      vertex 40 145 80
    endloop
  endfacet
  facet normal 1 0 0
    outer loop
      vertex 40 145 75
      vertex 40 140 80
      vertex 40 140 75
    endloop
  endfacet
  facet normal -1 0 0
    outer loop
      vertex 90 140 75
      vertex 90 145 80
      vertex 90 145 75
    endloop
  endfacet
  facet normal -1 -0 0
    outer loop
      vertex 90 145 80
      vertex 90 140 75
      vertex 90 140 80
    endloop
  endfacet
  facet normal 0 -1 0
    outer loop
      vertex 40 145 75
      vertex 90 145 80
      vertex 40 145 80
    endloop
  endfacet
  facet normal 0 -1 -0
    outer loop
      vertex 90 145 80
      vertex 40 145 75
      vertex 90 145 75
    endloop
  endfacet
  facet normal 0 1 -0
    outer loop
      vertex 90 140 75
      vertex 40 140 80
      vertex 90 140 80
    endloop
  endfacet
  facet normal 0 1 0
    outer loop
      vertex 40 140 80
      vertex 90 140 75
      vertex 40 140 75
    endloop
  endfacet
  facet normal 1 -0 0
    outer loop
      vertex 40 150 80
      vertex 40 155 75
      vertex 40 155 80
    endloop
  endfacet
  facet normal 1 0 0
    outer loop
      vertex 40 155 75
      vertex 40 150 80
      vertex 40 150 75
    endloop
  endfacet
  facet normal -1 0 0
    outer loop
      vertex 90 150 75
      vertex 90 155 80
      vertex 90 155 75
    endloop
  endfacet
  facet normal -1 -0 0
    outer loop
      vertex 90 155 80
      vertex 90 150 75
      vertex 90 150 80
    endloop
  endfacet
  facet normal 0 -1 0
    outer loop
      vertex 40 155 75
      vertex 90 155 80
      vertex 40 155 80
    endloop
  endfacet
  facet normal 0 -1 -0
    outer loop
      vertex 90 155 80
      vertex 40 155 75
      vertex 90 155 75
    endloop
  endfacet
  facet normal 0 1 -0
    outer loop
      vertex 90 150 75
      vertex 40 150 80
      vertex 90 150 80
    endloop
  endfacet
  facet normal 0 1 0
    outer loop
      vertex 40 150 80
      vertex 90 150 75
      vertex 40 150 75
    endloop
  endfacet
  facet normal 1 -0 0
    outer loop
      vertex 40 160 80
      vertex 40 165 75
      vertex 40 165 80
    endloop
  endfacet
  facet normal 1 0 0
    outer loop
      vertex 40 165 75
      vertex 40 160 80
      vertex 40 160 75
    endloop
  endfacet
  facet normal -1 0 0
    outer loop
      vertex 90 160 75
      vertex 90 165 80
      vertex 90 165 75
    endloop
  endfacet
  facet normal -1 -0 0
    outer loop
      vertex 90 165 80
      vertex 90 160 75
      vertex 90 160 80
    endloop
  endfacet
  facet normal 0 1 -0
    outer loop
      vertex 90 160 75
      vertex 40 160 80
      vertex 90 160 80
    endloop
  endfacet
  facet normal 0 1 0
    outer loop
      vertex 40 160 80
      vertex 90 160 75
      vertex 40 160 75
    endloop
  endfacet
  facet normal 0 -1 0
    outer loop
      vertex 40 165 75
      vertex 90 165 80
      vertex 40 165 80
    endloop
  endfacet
  facet normal 0 -1 -0
    outer loop
      vertex 90 165 80
      vertex 40 165 75
      vertex 90 165 75
    endloop
  endfacet
  facet normal 1 -0 0
    outer loop
      vertex 40 170 80
      vertex 40 175 75
      vertex 40 175 80
    endloop
  endfacet
  facet normal 1 0 0
    outer loop
      vertex 40 175 75
      vertex 40 170 80
      vertex 40 170 75
    endloop
  endfacet
  facet normal -1 0 0
    outer loop
      vertex 90 170 75
      vertex 90 175 80
      vertex 90 175 75
    endloop
  endfacet
  facet normal -1 -0 0
    outer loop
      vertex 90 175 80
      vertex 90 170 75
      vertex 90 170 80
    endloop
  endfacet
  facet normal 0 -1 0
    outer loop
      vertex 40 175 75
      vertex 90 175 80
      vertex 40 175 80
    endloop
  endfacet
  facet normal 0 -1 -0
    outer loop
      vertex 90 175 80
      vertex 40 175 75
      vertex 90 175 75
    endloop
  endfacet
  facet normal 0 1 -0
    outer loop
      vertex 90 170 75
      vertex 40 170 80
      vertex 90 170 80
    endloop
  endfacet
  facet normal 0 1 0
    outer loop
      vertex 40 170 80
      vertex 90 170 75
      vertex 40 170 75
    endloop
  endfacet
  facet normal 1 -0 0
    outer loop
      vertex 110 30 80
      vertex 110 35 75
      vertex 110 35 80
    endloop
  endfacet
  facet normal 1 0 0
    outer loop
      vertex 110 35 75
      vertex 110 30 80
      vertex 110 30 75
    endloop
  endfacet
  facet normal -1 0 0
    outer loop
      vertex 160 30 75
      vertex 160 35 80
      vertex 160 35 75
    endloop
  endfacet
  facet normal -1 -0 0
    outer loop
      vertex 160 35 80
      vertex 160 30 75
      vertex 160 30 80
    endloop
  endfacet
  facet normal 0 -1 0
    outer loop
      vertex 110 35 75
      vertex 160 35 80
      vertex 110 35 80
    endloop
  endfacet
  facet normal 0 -1 -0
    outer loop
      vertex 160 35 80
      vertex 110 35 75
      vertex 160 35 75
    endloop
  endfacet
  facet normal 0 1 -0
    outer loop
      vertex 160 30 75
      vertex 110 30 80
      vertex 160 30 80
    endloop
  endfacet
  facet normal 0 1 0
    outer loop
      vertex 110 30 80
      vertex 160 30 75
      vertex 110 30 75
    endloop
  endfacet
  facet normal 1 -0 0
    outer loop
      vertex 110 40 80
      vertex 110 45 75
      vertex 110 45 80
    endloop
  endfacet
  facet normal 1 0 0
    outer loop
      vertex 110 45 75
      vertex 110 40 80
      vertex 110 40 75
    endloop
  endfacet
  facet normal -1 0 0
    outer loop
      vertex 160 40 75
      vertex 160 45 80
      vertex 160 45 75
    endloop
  endfacet
  facet normal -1 -0 0
    outer loop
      vertex 160 45 80
      vertex 160 40 75
      vertex 160 40 80
    endloop
  endfacet
  facet normal 0 -1 0
    outer loop
      vertex 110 45 75
      vertex 160 45 80
      vertex 110 45 80
    endloop
  endfacet
  facet normal 0 -1 -0
    outer loop
      vertex 160 45 80
      vertex 110 45 75
      vertex 160 45 75
    endloop
  endfacet
  facet normal 0 1 -0
    outer loop
      vertex 160 40 75
      vertex 110 40 80
      vertex 160 40 80
    endloop
  endfacet
  facet normal 0 1 0
    outer loop
      vertex 110 40 80
      vertex 160 40 75
      vertex 110 40 75
    endloop
  endfacet
  facet normal 1 -0 0
    outer loop
      vertex 110 50 80
      vertex 110 55 75
      vertex 110 55 80
    endloop
  endfacet
  facet normal 1 0 0
    outer loop
      vertex 110 55 75
      vertex 110 50 80
      vertex 110 50 75
    endloop
  endfacet
  facet normal -1 0 0
    outer loop
      vertex 160 50 75
      vertex 160 55 80
      vertex 160 55 75
    endloop
  endfacet
  facet normal -1 -0 0
    outer loop
      vertex 160 55 80
      vertex 160 50 75
      vertex 160 50 80
    endloop
  endfacet
  facet normal 0 -1 0
    outer loop
      vertex 110 55 75
      vertex 160 55 80
      vertex 110 55 80
    endloop
  endfacet
  facet normal 0 -1 -0
    outer loop
      vertex 160 55 80
      vertex 110 55 75
      vertex 160 55 75
    endloop
  endfacet
  facet normal 0 1 -0
    outer loop
      vertex 160 50 75
      vertex 110 50 80
      vertex 160 50 80
    endloop
  endfacet
  facet normal 0 1 0
    outer loop
      vertex 110 50 80
      vertex 160 50 75
      vertex 110 50 75
    endloop
  endfacet
  facet normal 1 -0 0
    outer loop
      vertex 110 60 80
      vertex 110 65 75
      vertex 110 65 80
    endloop
  endfacet
  facet normal 1 0 0
    outer loop
      vertex 110 65 75
      vertex 110 60 80
      vertex 110 60 75
    endloop
  endfacet
  facet normal -1 0 0
    outer loop
      vertex 160 60 75
      vertex 160 65 80
      vertex 160 65 75
    endloop
  endfacet
  facet normal -1 -0 0
    outer loop
      vertex 160 65 80
      vertex 160 60 75
      vertex 160 60 80
    endloop
  endfacet
  facet normal 0 -1 0
    outer loop
      vertex 110 65 75
      vertex 160 65 80
      vertex 110 65 80
    endloop
  endfacet
  facet normal 0 -1 -0
    outer loop
      vertex 160 65 80
      vertex 110 65 75
      vertex 160 65 75
    endloop
  endfacet
  facet normal 0 1 -0
    outer loop
      vertex 160 60 75
      vertex 110 60 80
      vertex 160 60 80
    endloop
  endfacet
  facet normal 0 1 0
    outer loop
      vertex 110 60 80
      vertex 160 60 75
      vertex 110 60 75
    endloop
  endfacet
  facet normal 1 -0 0
    outer loop
      vertex 110 70 80
      vertex 110 75 75
      vertex 110 75 80
    endloop
  endfacet
  facet normal 1 0 0
    outer loop
      vertex 110 75 75
      vertex 110 70 80
      vertex 110 70 75
    endloop
  endfacet
  facet normal -1 0 0
    outer loop
      vertex 160 70 75
      vertex 160 75 80
      vertex 160 75 75
    endloop
  endfacet
  facet normal -1 -0 0
    outer loop
      vertex 160 75 80
      vertex 160 70 75
      vertex 160 70 80
    endloop
  endfacet
  facet normal 0 -1 0
    outer loop
      vertex 110 75 75
      vertex 160 75 80
      vertex 110 75 80
    endloop
  endfacet
  facet normal 0 -1 -0
    outer loop
      vertex 160 75 80
      vertex 110 75 75
      vertex 160 75 75
    endloop
  endfacet
  facet normal 0 1 -0
    outer loop
      vertex 160 70 75
      vertex 110 70 80
      vertex 160 70 80
    endloop
  endfacet
  facet normal 0 1 0
    outer loop
      vertex 110 70 80
      vertex 160 70 75
      vertex 110 70 75
    endloop
  endfacet
  facet normal 1 -0 0
    outer loop
      vertex 110 80 80
      vertex 110 85 75
      vertex 110 85 80
    endloop
  endfacet
  facet normal 1 0 0
    outer loop
      vertex 110 85 75
      vertex 110 80 80
      vertex 110 80 75
    endloop
  endfacet
  facet normal -1 0 0
    outer loop
      vertex 160 80 75
      vertex 160 85 80
      vertex 160 85 75
    endloop
  endfacet
  facet normal -1 -0 0
    outer loop
      vertex 160 85 80
      vertex 160 80 75
      vertex 160 80 80
    endloop
  endfacet
  facet normal 0 -1 0
    outer loop
      vertex 110 85 75
      vertex 160 85 80
      vertex 110 85 80
    endloop
  endfacet
  facet normal 0 -1 -0
    outer loop
      vertex 160 85 80
      vertex 110 85 75
      vertex 160 85 75
    endloop
  endfacet
  facet normal 0 1 -0
    outer loop
      vertex 160 80 75
      vertex 110 80 80
      vertex 160 80 80
    endloop
  endfacet
  facet normal 0 1 0
    outer loop
      vertex 110 80 80
      vertex 160 80 75
      vertex 110 80 75
    endloop
  endfacet
  facet normal 1 -0 0
    outer loop
      vertex 110 90 80
      vertex 110 95 75
      vertex 110 95 80
    endloop
  endfacet
  facet normal 1 0 0
    outer loop
      vertex 110 95 75
      vertex 110 90 80
      vertex 110 90 75
    endloop
  endfacet
  facet normal -1 0 0
    outer loop
      vertex 160 90 75
      vertex 160 95 80
      vertex 160 95 75
    endloop
  endfacet
  facet normal -1 -0 0
    outer loop
      vertex 160 95 80
      vertex 160 90 75
      vertex 160 90 80
    endloop
  endfacet
  facet normal 0 -1 0
    outer loop
      vertex 110 95 75
      vertex 160 95 80
      vertex 110 95 80
    endloop
  endfacet
  facet normal 0 -1 -0
    outer loop
      vertex 160 95 80
      vertex 110 95 75
      vertex 160 95 75
    endloop
  endfacet
  facet normal 0 1 -0
    outer loop
      vertex 160 90 75
      vertex 110 90 80
      vertex 160 90 80
    endloop
  endfacet
  facet normal 0 1 0
    outer loop
      vertex 110 90 80
      vertex 160 90 75
      vertex 110 90 75
    endloop
  endfacet
  facet normal 1 -0 0
    outer loop
      vertex 110 100 80
      vertex 110 105 75
      vertex 110 105 80
    endloop
  endfacet
  facet normal 1 0 0
    outer loop
      vertex 110 105 75
      vertex 110 100 80
      vertex 110 100 75
    endloop
  endfacet
  facet normal -1 0 0
    outer loop
      vertex 160 100 75
      vertex 160 105 80
      vertex 160 105 75
    endloop
  endfacet
  facet normal -1 -0 0
    outer loop
      vertex 160 105 80
      vertex 160 100 75
      vertex 160 100 80
    endloop
  endfacet
  facet normal 0 -1 0
    outer loop
      vertex 110 105 75
      vertex 160 105 80
      vertex 110 105 80
    endloop
  endfacet
  facet normal 0 -1 -0
    outer loop
      vertex 160 105 80
      vertex 110 105 75
      vertex 160 105 75
    endloop
  endfacet
  facet normal 0 1 -0
    outer loop
      vertex 160 100 75
      vertex 110 100 80
      vertex 160 100 80
    endloop
  endfacet
  facet normal 0 1 0
    outer loop
      vertex 110 100 80
      vertex 160 100 75
      vertex 110 100 75
    endloop
  endfacet
  facet normal 1 -0 0
    outer loop
      vertex 110 110 80
      vertex 110 115 75
      vertex 110 115 80
    endloop
  endfacet
  facet normal 1 0 0
    outer loop
      vertex 110 115 75
      vertex 110 110 80
      vertex 110 110 75
    endloop
  endfacet
  facet normal -1 0 0
    outer loop
      vertex 160 110 75
      vertex 160 115 80
      vertex 160 115 75
    endloop
  endfacet
  facet normal -1 -0 0
    outer loop
      vertex 160 115 80
      vertex 160 110 75
      vertex 160 110 80
    endloop
  endfacet
  facet normal 0 -1 0
    outer loop
      vertex 110 115 75
      vertex 160 115 80
      vertex 110 115 80
    endloop
  endfacet
  facet normal 0 -1 -0
    outer loop
      vertex 160 115 80
      vertex 110 115 75
      vertex 160 115 75
    endloop
  endfacet
  facet normal 0 1 -0
    outer loop
      vertex 160 110 75
      vertex 110 110 80
      vertex 160 110 80
    endloop
  endfacet
  facet normal 0 1 0
    outer loop
      vertex 110 110 80
      vertex 160 110 75
      vertex 110 110 75
    endloop
  endfacet
  facet normal 1 -0 0
    outer loop
      vertex 110 120 80
      vertex 110 125 75
      vertex 110 125 80
    endloop
  endfacet
  facet normal 1 0 0
    outer loop
      vertex 110 125 75
      vertex 110 120 80
      vertex 110 120 75
    endloop
  endfacet
  facet normal -1 0 0
    outer loop
      vertex 160 120 75
      vertex 160 125 80
      vertex 160 125 75
    endloop
  endfacet
  facet normal -1 -0 0
    outer loop
      vertex 160 125 80
      vertex 160 120 75
      vertex 160 120 80
    endloop
  endfacet
  facet normal 0 1 -0
    outer loop
      vertex 160 120 75
      vertex 110 120 80
      vertex 160 120 80
    endloop
  endfacet
  facet normal 0 1 0
    outer loop
      vertex 110 120 80
      vertex 160 120 75
      vertex 110 120 75
    endloop
  endfacet
  facet normal 0 -1 0
    outer loop
      vertex 110 125 75
      vertex 160 125 80
      vertex 110 125 80
    endloop
  endfacet
  facet normal 0 -1 -0
    outer loop
      vertex 160 125 80
      vertex 110 125 75
      vertex 160 125 75
    endloop
  endfacet
  facet normal 1 -0 0
    outer loop
      vertex 110 130 80
      vertex 110 135 75
      vertex 110 135 80
    endloop
  endfacet
  facet normal 1 0 0
    outer loop
      vertex 110 135 75
      vertex 110 130 80
      vertex 110 130 75
    endloop
  endfacet
  facet normal -1 0 0
    outer loop
      vertex 160 130 75
      vertex 160 135 80
      vertex 160 135 75
    endloop
  endfacet
  facet normal -1 -0 0
    outer loop
      vertex 160 135 80
      vertex 160 130 75
      vertex 160 130 80
    endloop
  endfacet
  facet normal 0 -1 0
    outer loop
      vertex 110 135 75
      vertex 160 135 80
      vertex 110 135 80
    endloop
  endfacet
  facet normal 0 -1 -0
    outer loop
      vertex 160 135 80
      vertex 110 135 75
      vertex 160 135 75
    endloop
  endfacet
  facet normal 0 1 -0
    outer loop
      vertex 160 130 75
      vertex 110 130 80
      vertex 160 130 80
    endloop
  endfacet
  facet normal 0 1 0
    outer loop
      vertex 110 130 80
      vertex 160 130 75
      vertex 110 130 75
    endloop
  endfacet
  facet normal 1 -0 0
    outer loop
      vertex 110 140 80
      vertex 110 145 75
      vertex 110 145 80
    endloop
  endfacet
  facet normal 1 0 0
    outer loop
      vertex 110 145 75
      vertex 110 140 80
      vertex 110 140 75
    endloop
  endfacet
  facet normal -1 0 0
    outer loop
      vertex 160 140 75
      vertex 160 145 80
      vertex 160 145 75
    endloop
  endfacet
  facet normal -1 -0 0
    outer loop
      vertex 160 145 80
      vertex 160 140 75
      vertex 160 140 80
    endloop
  endfacet
  facet normal 0 -1 0
    outer loop
      vertex 110 145 75
      vertex 160 145 80
      vertex 110 145 80
    endloop
  endfacet
  facet normal 0 -1 -0
    outer loop
      vertex 160 145 80
      vertex 110 145 75
      vertex 160 145 75
    endloop
  endfacet
  facet normal 0 1 -0
    outer loop
      vertex 160 140 75
      vertex 110 140 80
      vertex 160 140 80
    endloop
  endfacet
  facet normal 0 1 0
    outer loop
      vertex 110 140 80
      vertex 160 140 75
      vertex 110 140 75
    endloop
  endfacet
  facet normal 1 -0 0
    outer loop
      vertex 110 150 80
      vertex 110 155 75
      vertex 110 155 80
    endloop
  endfacet
  facet normal 1 0 0
    outer loop
      vertex 110 155 75
      vertex 110 150 80
      vertex 110 150 75
    endloop
  endfacet
  facet normal -1 0 0
    outer loop
      vertex 160 150 75
      vertex 160 155 80
      vertex 160 155 75
    endloop
  endfacet
  facet normal -1 -0 0
    outer loop
      vertex 160 155 80
      vertex 160 150 75
      vertex 160 150 80
    endloop
  endfacet
  facet normal 0 -1 0
    outer loop
      vertex 110 155 75
      vertex 160 155 80
      vertex 110 155 80
    endloop
  endfacet
  facet normal 0 -1 -0
    outer loop
      vertex 160 155 80
      vertex 110 155 75
      vertex 160 155 75
    endloop
  endfacet
  facet normal 0 1 -0
    outer loop
      vertex 160 150 75
      vertex 110 150 80
      vertex 160 150 80
    endloop
  endfacet
  facet normal 0 1 0
    outer loop
      vertex 110 150 80
      vertex 160 150 75
      vertex 110 150 75
    endloop
  endfacet
  facet normal 1 -0 0
    outer loop
      vertex 110 160 80
      vertex 110 165 75
      vertex 110 165 80
    endloop
  endfacet
  facet normal 1 0 0
    outer loop
      vertex 110 165 75
      vertex 110 160 80
      vertex 110 160 75
    endloop
  endfacet
  facet normal -1 0 0
    outer loop
      vertex 160 160 75
      vertex 160 165 80
      vertex 160 165 75
    endloop
  endfacet
  facet normal -1 -0 0
    outer loop
      vertex 160 165 80
      vertex 160 160 75
      vertex 160 160 80
    endloop
  endfacet
  facet normal 0 1 -0
    outer loop
      vertex 160 160 75
      vertex 110 160 80
      vertex 160 160 80
    endloop
  endfacet
  facet normal 0 1 0
    outer loop
      vertex 110 160 80
      vertex 160 160 75
      vertex 110 160 75
    endloop
  endfacet
  facet normal 0 -1 0
    outer loop
      vertex 110 165 75
      vertex 160 165 80
      vertex 110 165 80
    endloop
  endfacet
  facet normal 0 -1 -0
    outer loop
      vertex 160 165 80
      vertex 110 165 75
      vertex 160 165 75
    endloop
  endfacet
  facet normal 1 -0 0
    outer loop
      vertex 110 170 80
      vertex 110 175 75
      vertex 110 175 80
    endloop
  endfacet
  facet normal 1 0 0
    outer loop
      vertex 110 175 75
      vertex 110 170 80
      vertex 110 170 75
    endloop
  endfacet
  facet normal -1 0 0
    outer loop
      vertex 160 170 75
      vertex 160 175 80
      vertex 160 175 75
    endloop
  endfacet
  facet normal -1 -0 0
    outer loop
      vertex 160 175 80
      vertex 160 170 75
      vertex 160 170 80
    endloop
  endfacet
  facet normal 0 -1 0
    outer loop
      vertex 110 175 75
      vertex 160 175 80
      vertex 110 175 80
    endloop
  endfacet
  facet normal 0 -1 -0
    outer loop
      vertex 160 175 80
      vertex 110 175 75
      vertex 160 175 75
    endloop
  endfacet
  facet normal 0 1 -0
    outer loop
      vertex 160 170 75
      vertex 110 170 80
      vertex 160 170 80
    endloop
  endfacet
  facet normal 0 1 0
    outer loop
      vertex 110 170 80
      vertex 160 170 75
      vertex 110 170 75
    endloop
  endfacet
  facet normal -1 0 0
    outer loop
      vertex 0 0 75
      vertex 0 200 80
      vertex 0 200 75
    endloop
  endfacet
  facet normal -1 -0 0
    outer loop
      vertex 0 200 80
      vertex 0 0 75
      vertex 0 0 80
    endloop
  endfacet
  facet normal -0 0 1
    outer loop
      vertex 40 40 80
      vertex 90 35 80
      vertex 90 40 80
    endloop
  endfacet
  facet normal 0 0 1
    outer loop
      vertex 90 35 80
      vertex 40 40 80
      vertex 40 35 80
    endloop
  endfacet
  facet normal -0 0 1
    outer loop
      vertex 40 50 80
      vertex 90 45 80
      vertex 90 50 80
    endloop
  endfacet
  facet normal 0 0 1
    outer loop
      vertex 90 45 80
      vertex 40 50 80
      vertex 40 45 80
    endloop
  endfacet
  facet normal -0 0 1
    outer loop
      vertex 40 60 80
      vertex 90 55 80
      vertex 90 60 80
    endloop
  endfacet
  facet normal 0 0 1
    outer loop
      vertex 90 55 80
      vertex 40 60 80
      vertex 40 55 80
    endloop
  endfacet
  facet normal -0 0 1
    outer loop
      vertex 40 70 80
      vertex 90 65 80
      vertex 90 70 80
    endloop
  endfacet
  facet normal 0 0 1
    outer loop
      vertex 90 65 80
      vertex 40 70 80
      vertex 40 65 80
    endloop
  endfacet
  facet normal -0 0 1
    outer loop
      vertex 40 80 80
      vertex 90 75 80
      vertex 90 80 80
    endloop
  endfacet
  facet normal 0 0 1
    outer loop
      vertex 90 75 80
      vertex 40 80 80
      vertex 40 75 80
    endloop
  endfacet
  facet normal -0 0 1
    outer loop
      vertex 40 90 80
      vertex 90 85 80
      vertex 90 90 80
    endloop
  endfacet
  facet normal 0 0 1
    outer loop
      vertex 90 85 80
      vertex 40 90 80
      vertex 40 85 80
    endloop
  endfacet
  facet normal -0 0 1
    outer loop
      vertex 40 100 80
      vertex 90 95 80
      vertex 90 100 80
    endloop
  endfacet
  facet normal 0 0 1
    outer loop
      vertex 90 95 80
      vertex 40 100 80
      vertex 40 95 80
    endloop
  endfacet
  facet normal -0 0 1
    outer loop
      vertex 40 110 80
      vertex 90 105 80
      vertex 90 110 80
    endloop
  endfacet
  facet normal 0 0 1
    outer loop
      vertex 90 105 80
      vertex 40 110 80
      vertex 40 105 80
    endloop
  endfacet
  facet normal -0 0 1
    outer loop
      vertex 40 120 80
      vertex 90 115 80
      vertex 90 120 80
    endloop
  endfacet
  facet normal 0 0 1
    outer loop
      vertex 90 115 80
      vertex 40 120 80
      vertex 40 115 80
    endloop
  endfacet
  facet normal -0 0 1
    outer loop
      vertex 40 130 80
      vertex 90 125 80
      vertex 90 130 80
    endloop
  endfacet
  facet normal 0 0 1
    outer loop
      vertex 90 125 80
      vertex 40 130 80
      vertex 40 125 80
    endloop
  endfacet
  facet normal -0 0 1
    outer loop
      vertex 40 140 80
      vertex 90 135 80
      vertex 90 140 80
    endloop
  endfacet
  facet normal 0 0 1
    outer loop
      vertex 90 135 80
      vertex 40 140 80
      vertex 40 135 80
    endloop
  endfacet
  facet normal -0 0 1
    outer loop
      vertex 40 150 80
      vertex 90 145 80
      vertex 90 150 80
    endloop
  endfacet
  facet normal 0 0 1
    outer loop
      vertex 90 145 80
      vertex 40 150 80
      vertex 40 145 80
    endloop
  endfacet
  facet normal -0 0 1
    outer loop
      vertex 40 160 80
      vertex 90 155 80
      vertex 90 160 80
    endloop
  endfacet
  facet normal 0 0 1
    outer loop
      vertex 90 155 80
      vertex 40 160 80
      vertex 40 155 80
    endloop
  endfacet
  facet normal -0 0 1
    outer loop
      vertex 40 170 80
      vertex 90 165 80
      vertex 90 170 80
    endloop
  endfacet
  facet normal 0 0 1
    outer loop
      vertex 90 165 80
      vertex 40 170 80
      vertex 40 165 80
    endloop
  endfacet
  facet normal -0 0 1
    outer loop
      vertex 110 40 80
      vertex 160 35 80
      vertex 160 40 80
    endloop
  endfacet
  facet normal 0 0 1
    outer loop
      vertex 160 35 80
      vertex 110 40 80
      vertex 110 35 80
    endloop
  endfacet
  facet normal -0 0 1
    outer loop
      vertex 110 50 80
      vertex 160 45 80
      vertex 160 50 80
    endloop
  endfacet
  facet normal 0 0 1
    outer loop
      vertex 160 45 80
      vertex 110 50 80
      vertex 110 45 80
    endloop
  endfacet
  facet normal -0 0 1
    outer loop
      vertex 110 60 80
      vertex 160 55 80
      vertex 160 60 80
    endloop
  endfacet
  facet normal 0 0 1
    outer loop
      vertex 160 55 80
      vertex 110 60 80
      vertex 110 55 80
    endloop
  endfacet
  facet normal -0 0 1
    outer loop
      vertex 110 70 80
      vertex 160 65 80
      vertex 160 70 80
    endloop
  endfacet
  facet normal 0 0 1
    outer loop
      vertex 160 65 80
      vertex 110 70 80
      vertex 110 65 80
    endloop
  endfacet
  facet normal -0 0 1
    outer loop
      vertex 110 80 80
      vertex 160 75 80
      vertex 160 80 80
    endloop
  endfacet
  facet normal 0 0 1
    outer loop
      vertex 160 75 80
      vertex 110 80 80
      vertex 110 75 80
    endloop
  endfacet
  facet normal -0 0 1
    outer loop
      vertex 110 90 80
      vertex 160 85 80
      vertex 160 90 80
    endloop
  endfacet
  facet normal 0 0 1
    outer loop
      vertex 160 85 80
      vertex 110 90 80
      vertex 110 85 80
    endloop
  endfacet
  facet normal -0 0 1
    outer loop
      vertex 110 100 80
      vertex 160 95 80
      vertex 160 100 80
    endloop
  endfacet
  facet normal 0 0 1
    outer loop
      vertex 160 95 80
      vertex 110 100 80
      vertex 110 95 80
    endloop
  endfacet
  facet normal -0 0 1
    outer loop
      vertex 110 110 80
      vertex 160 105 80
      vertex 160 110 80
    endloop
  endfacet
  facet normal 0 0 1
    outer loop
      vertex 160 105 80
      vertex 110 110 80
      vertex 110 105 80
    endloop
  endfacet
  facet normal -0 0 1
    outer loop
      vertex 110 120 80
      vertex 160 115 80
      vertex 160 120 80
    endloop
  endfacet
  facet normal 0 0 1
    outer loop
      vertex 160 115 80
      vertex 110 120 80
      vertex 110 115 80
    endloop
  endfacet
  facet normal -0 0 1
    outer loop
      vertex 110 130 80
      vertex 160 125 80
      vertex 160 130 80
    endloop
  endfacet
  facet normal 0 0 1
    outer loop
      vertex 160 125 80
      vertex 110 130 80
      vertex 110 125 80
    endloop
  endfacet
  facet normal -0 0 1
    outer loop
      vertex 110 140 80
      vertex 160 135 80
      vertex 160 140 80
    endloop
  endfacet
  facet normal 0 0 1
    outer loop
      vertex 160 135 80
      vertex 110 140 80
      vertex 110 135 80
    endloop
  endfacet
  facet normal -0 0 1
    outer loop
      vertex 110 150 80
      vertex 160 145 80
      vertex 160 150 80
    endloop
  endfacet
  facet normal 0 0 1
    outer loop
      vertex 160 145 80
      vertex 110 150 80
      vertex 110 145 80
    endloop
  endfacet
  facet normal -0 0 1
    outer loop
      vertex 110 160 80
      vertex 160 155 80
      vertex 160 160 80
    endloop
  endfacet
  facet normal 0 0 1
    outer loop
      vertex 160 155 80
      vertex 110 160 80
      vertex 110 155 80
    endloop
  endfacet
  facet normal -0 0 1
    outer loop
      vertex 110 170 80
      vertex 160 165 80
      vertex 160 170 80
    endloop
  endfacet
  facet normal 0 0 1
    outer loop
      vertex 160 165 80
      vertex 110 170 80
      vertex 110 165 80
    endloop
  endfacet
  facet normal 0 0 1
    outer loop
      vertex 160 170 80
      vertex 200 200 80
      vertex 160 175 80
    endloop
  endfacet
  facet normal 0 0 1
    outer loop
      vertex 200 200 80
      vertex 110 175 80
      vertex 160 175 80
    endloop
  endfacet
  facet normal 0 0 1
    outer loop
      vertex 90 170 80
      vertex 110 170 80
      vertex 110 175 80
    endloop
  endfacet
  facet normal 0 0 1
    outer loop
      vertex 110 170 80
      vertex 90 170 80
      vertex 110 165 80
    endloop
  endfacet
  facet normal 0 0 1
    outer loop
      vertex 110 165 80
      vertex 90 165 80
      vertex 110 160 80
    endloop
  endfacet
  facet normal 0 0 1
    outer loop
      vertex 90 160 80
      vertex 110 160 80
      vertex 90 165 80
    endloop
  endfacet
  facet normal 0 0 1
    outer loop
      vertex 90 155 80
      vertex 110 155 80
      vertex 90 160 80
    endloop
  endfacet
  facet normal 0 0 1
    outer loop
      vertex 110 155 80
      vertex 90 155 80
      vertex 110 150 80
    endloop
  endfacet
  facet normal 0 0 1
    outer loop
      vertex 110 150 80
      vertex 90 150 80
      vertex 110 145 80
    endloop
  endfacet
  facet normal 0 0 1
    outer loop
      vertex 90 145 80
      vertex 110 145 80
      vertex 90 150 80
    endloop
  endfacet
  facet normal 0 0 1
    outer loop
      vertex 90 140 80
      vertex 110 140 80
      vertex 90 145 80
    endloop
  endfacet
  facet normal 0 0 1
    outer loop
      vertex 110 140 80
      vertex 90 140 80
      vertex 110 135 80
    endloop
  endfacet
  facet normal 0 0 1
    outer loop
      vertex 110 135 80
      vertex 90 135 80
      vertex 110 130 80
    endloop
  endfacet
  facet normal 0 0 1
    outer loop
      vertex 90 130 80
      vertex 110 130 80
      vertex 90 135 80
    endloop
  endfacet
  facet normal 0 0 1
    outer loop
      vertex 90 125 80
      vertex 110 125 80
      vertex 90 130 80
    endloop
  endfacet
  facet normal 0 0 1
    outer loop
      vertex 110 125 80
      vertex 90 125 80
      vertex 110 120 80
    endloop
  endfacet
  facet normal 0 0 1
    outer loop
      vertex 110 120 80
      vertex 90 120 80
      vertex 110 115 80
    endloop
  endfacet
  facet normal 0 0 1
    outer loop
      vertex 90 115 80
      vertex 110 115 80
      vertex 90 120 80
    endloop
  endfacet
  facet normal 0 0 1
    outer loop
      vertex 90 110 80
      vertex 110 110 80
      vertex 90 115 80
    endloop
  endfacet
  facet normal 0 0 1
    outer loop
      vertex 110 110 80
      vertex 90 110 80
      vertex 110 105 80
    endloop
  endfacet
  facet normal 0 0 1
    outer loop
      vertex 110 105 80
      vertex 90 105 80
      vertex 110 100 80
    endloop
  endfacet
  facet normal 0 0 1
    outer loop
      vertex 90 100 80
      vertex 110 100 80
      vertex 90 105 80
    endloop
  endfacet
  facet normal 0 0 1
    outer loop
      vertex 90 95 80
      vertex 110 95 80
      vertex 90 100 80
    endloop
  endfacet
  facet normal 0 0 1
    outer loop
      vertex 110 95 80
      vertex 90 95 80
      vertex 110 90 80
    endloop
  endfacet
  facet normal 0 0 1
    outer loop
      vertex 110 90 80
      vertex 90 90 80
      vertex 110 85 80
    endloop
  endfacet
  facet normal 0 0 1
    outer loop
      vertex 90 85 80
      vertex 110 85 80
      vertex 90 90 80
    endloop
  endfacet
  facet normal 0 0 1
    outer loop
      vertex 90 80 80
      vertex 110 80 80
      vertex 90 85 80
    endloop
  endfacet
  facet normal 0 0 1
    outer loop
      vertex 110 80 80
      vertex 90 80 80
      vertex 110 75 80
    endloop
  endfacet
  facet normal 0 0 1
    outer loop
      vertex 110 75 80
      vertex 90 75 80
      vertex 110 70 80
    endloop
  endfacet
  facet normal 0 0 1
    outer loop
      vertex 90 70 80
      vertex 110 70 80
      vertex 90 75 80
    endloop
  endfacet
  facet normal 0 0 1
    outer loop
      vertex 90 170 80
      vertex 110 175 80
      vertex 90 175 80
    endloop
  endfacet
  facet normal 0 0 1
    outer loop
      vertex 200 200 80
      vertex 90 175 80
      vertex 110 175 80
    endloop
  endfacet
  facet normal -0 0 1
    outer loop
      vertex 0 200 80
      vertex 90 175 80
      vertex 200 200 80
    endloop
  endfacet
  facet normal 0 0 1
    outer loop
      vertex 0 200 80
      vertex 40 170 80
      vertex 40 175 80
    endloop
  endfacet
  facet normal 0 0 1
    outer loop
      vertex 40 170 80
      vertex 0 200 80
      vertex 40 165 80
    endloop
  endfacet
  facet normal 0 0 1
    outer loop
      vertex 40 165 80
      vertex 0 200 80
      vertex 40 160 80
    endloop
  endfacet
  facet normal 0 0 1
    outer loop
      vertex 40 160 80
      vertex 0 200 80
      vertex 40 155 80
    endloop
  endfacet
  facet normal 0 0 1
    outer loop
      vertex 40 155 80
      vertex 0 200 80
      vertex 40 150 80
    endloop
  endfacet
  facet normal 0 0 1
    outer loop
      vertex 40 150 80
      vertex 0 200 80
      vertex 40 145 80
    endloop
  endfacet
  facet normal 0 0 1
    outer loop
      vertex 40 145 80
      vertex 0 200 80
      vertex 40 140 80
    endloop
  endfacet
  facet normal 0 0 1
    outer loop
      vertex 40 140 80
      vertex 0 200 80
      vertex 40 135 80
    endloop
  endfacet
  facet normal 0 0 1
    outer loop
      vertex 40 135 80
      vertex 0 200 80
      vertex 40 130 80
    endloop
  endfacet
  facet normal 0 0 1
    outer loop
      vertex 40 130 80
      vertex 0 200 80
      vertex 40 125 80
    endloop
  endfacet
  facet normal 0 0 1
    outer loop
      vertex 40 125 80
      vertex 0 200 80
      vertex 40 120 80
    endloop
  endfacet
  facet normal 0 0 1
    outer loop
      vertex 40 120 80
      vertex 0 200 80
      vertex 40 115 80
    endloop
  endfacet
  facet normal 0 0 1
    outer loop
      vertex 40 115 80
      vertex 0 200 80
      vertex 40 110 80
    endloop
  endfacet
  facet normal 0 0 1
    outer loop
      vertex 40 110 80
      vertex 0 200 80
      vertex 40 105 80
    endloop
  endfacet
  facet normal 0 0 1
    outer loop
      vertex 40 105 80
      vertex 0 200 80
      vertex 40 100 80
    endloop
  endfacet
  facet normal 0 0 1
    outer loop
      vertex 0 0 80
      vertex 40 100 80
      vertex 0 200 80
    endloop
  endfacet
  facet normal 0 0 1
    outer loop
      vertex 40 100 80
      vertex 0 0 80
      vertex 40 95 80
    endloop
  endfacet
  facet normal 0 0 1
    outer loop
      vertex 40 95 80
      vertex 0 0 80
      vertex 40 90 80
    endloop
  endfacet
  facet normal 0 0 1
    outer loop
      vertex 40 90 80
      vertex 0 0 80
      vertex 40 85 80
    endloop
  endfacet
  facet normal 0 0 1
    outer loop
      vertex 40 85 80
      vertex 0 0 80
      vertex 40 80 80
    endloop
  endfacet
  facet normal 0 0 1
    outer loop
      vertex 40 80 80
      vertex 0 0 80
      vertex 40 75 80
    endloop
  endfacet
  facet normal 0 0 1
    outer loop
      vertex 40 75 80
      vertex 0 0 80
      vertex 40 70 80
    endloop
  endfacet
  facet normal 0 0 1
    outer loop
      vertex 40 70 80
      vertex 0 0 80
      vertex 40 65 80
    endloop
  endfacet
  facet normal 0 0 1
    outer loop
      vertex 40 65 80
      vertex 0 0 80
      vertex 40 60 80
    endloop
  endfacet
  facet normal 0 0 1
    outer loop
      vertex 40 60 80
      vertex 0 0 80
      vertex 40 55 80
    endloop
  endfacet
  facet normal 0 0 1
    outer loop
      vertex 40 55 80
      vertex 0 0 80
      vertex 40 50 80
    endloop
  endfacet
  facet normal 0 0 1
    outer loop
      vertex 40 50 80
      vertex 0 0 80
      vertex 40 45 80
    endloop
  endfacet
  facet normal 0 0 1
    outer loop
      vertex 40 45 80
      vertex 0 0 80
      vertex 40 40 80
    endloop
  endfacet
  facet normal 0 0 1
    outer loop
      vertex 40 40 80
      vertex 0 0 80
      vertex 40 35 80
    endloop
  endfacet
  facet normal 0 0 1
    outer loop
      vertex 90 175 80
      vertex 0 200 80
      vertex 40 175 80
    endloop
  endfacet
  facet normal 0 0 1
    outer loop
      vertex 160 165 80
      vertex 200 200 80
      vertex 160 170 80
    endloop
  endfacet
  facet normal 0 0 1
    outer loop
      vertex 160 160 80
      vertex 200 200 80
      vertex 160 165 80
    endloop
  endfacet
  facet normal 0 0 1
    outer loop
      vertex 160 155 80
      vertex 200 200 80
      vertex 160 160 80
    endloop
  endfacet
  facet normal 0 0 1
    outer loop
      vertex 160 150 80
      vertex 200 200 80
      vertex 160 155 80
    endloop
  endfacet
  facet normal 0 0 1
    outer loop
      vertex 160 145 80
      vertex 200 200 80
      vertex 160 150 80
    endloop
  endfacet
  facet normal 0 0 1
    outer loop
      vertex 160 140 80
      vertex 200 200 80
      vertex 160 145 80
    endloop
  endfacet
  facet normal 0 0 1
    outer loop
      vertex 160 135 80
      vertex 200 200 80
      vertex 160 140 80
    endloop
  endfacet
  facet normal 0 0 1
    outer loop
      vertex 160 130 80
      vertex 200 200 80
      vertex 160 135 80
    endloop
  endfacet
  facet normal 0 0 1
    outer loop
      vertex 160 125 80
      vertex 200 200 80
      vertex 160 130 80
    endloop
  endfacet
  facet normal 0 0 1
    outer loop
      vertex 160 120 80
      vertex 200 200 80
      vertex 160 125 80
    endloop
  endfacet
  facet normal 0 0 1
    outer loop
      vertex 160 115 80
      vertex 200 200 80
      vertex 160 120 80
    endloop
  endfacet
  facet normal 0 0 1
    outer loop
      vertex 160 110 80
      vertex 200 200 80
      vertex 160 115 80
    endloop
  endfacet
  facet normal 0 0 1
    outer loop
      vertex 160 105 80
      vertex 200 200 80
      vertex 160 110 80
    endloop
  endfacet
  facet normal 0 0 1
    outer loop
      vertex 160 100 80
      vertex 200 200 80
      vertex 160 105 80
    endloop
  endfacet
  facet normal 0 0 1
    outer loop
      vertex 200 200 80
      vertex 160 100 80
      vertex 200 0 80
    endloop
  endfacet
  facet normal -0 0 1
    outer loop
      vertex 160 95 80
      vertex 200 0 80
      vertex 160 100 80
    endloop
  endfacet
  facet normal -0 0 1
    outer loop
      vertex 160 90 80
      vertex 200 0 80
      vertex 160 95 80
    endloop
  endfacet
  facet normal -0 0 1
    outer loop
      vertex 160 85 80
      vertex 200 0 80
      vertex 160 90 80
    endloop
  endfacet
  facet normal -0 0 1
    outer loop
      vertex 160 80 80
      vertex 200 0 80
      vertex 160 85 80
    endloop
  endfacet
  facet normal -0 0 1
    outer loop
      vertex 160 75 80
      vertex 200 0 80
      vertex 160 80 80
    endloop
  endfacet
  facet normal -0 0 1
    outer loop
      vertex 160 70 80
      vertex 200 0 80
      vertex 160 75 80
    endloop
  endfacet
  facet normal -0 0 1
    outer loop
      vertex 160 65 80
      vertex 200 0 80
      vertex 160 70 80
    endloop
  endfacet
  facet normal -0 0 1
    outer loop
      vertex 160 60 80
      vertex 200 0 80
      vertex 160 65 80
    endloop
  endfacet
  facet normal -0 0 1
    outer loop
      vertex 160 55 80
      vertex 200 0 80
      vertex 160 60 80
    endloop
  endfacet
  facet normal -0 0 1
    outer loop
      vertex 160 50 80
      vertex 200 0 80
      vertex 160 55 80
    endloop
  endfacet
  facet normal -0 0 1
    outer loop
      vertex 160 45 80
      vertex 200 0 80
      vertex 160 50 80
    endloop
  endfacet
  facet normal -0 0 1
    outer loop
      vertex 160 40 80
      vertex 200 0 80
      vertex 160 45 80
    endloop
  endfacet
  facet normal -0 0 1
    outer loop
      vertex 160 35 80
      vertex 200 0 80
      vertex 160 40 80
    endloop
  endfacet
  facet normal -0 0 1
    outer loop
      vertex 160 30 80
      vertex 200 0 80
      vertex 160 35 80
    endloop
  endfacet
  facet normal -0 0 1
    outer loop
      vertex 110 30 80
      vertex 200 0 80
      vertex 160 30 80
    endloop
  endfacet
  facet normal 0 0 1
    outer loop
      vertex 110 165 80
      vertex 90 170 80
      vertex 90 165 80
    endloop
  endfacet
  facet normal 0 0 1
    outer loop
      vertex 110 160 80
      vertex 90 160 80
      vertex 110 155 80
    endloop
  endfacet
  facet normal 0 0 1
    outer loop
      vertex 90 150 80
      vertex 110 150 80
      vertex 90 155 80
    endloop
  endfacet
  facet normal 0 0 1
    outer loop
      vertex 110 145 80
      vertex 90 145 80
      vertex 110 140 80
    endloop
  endfacet
  facet normal 0 0 1
    outer loop
      vertex 90 135 80
      vertex 110 135 80
      vertex 90 140 80
    endloop
  endfacet
  facet normal 0 0 1
    outer loop
      vertex 110 130 80
      vertex 90 130 80
      vertex 110 125 80
    endloop
  endfacet
  facet normal 0 0 1
    outer loop
      vertex 90 120 80
      vertex 110 120 80
      vertex 90 125 80
    endloop
  endfacet
  facet normal 0 0 1
    outer loop
      vertex 110 115 80
      vertex 90 115 80
      vertex 110 110 80
    endloop
  endfacet
  facet normal 0 0 1
    outer loop
      vertex 90 105 80
      vertex 110 105 80
      vertex 90 110 80
    endloop
  endfacet
  facet normal 0 0 1
    outer loop
      vertex 110 100 80
      vertex 90 100 80
      vertex 110 95 80
    endloop
  endfacet
  facet normal 0 0 1
    outer loop
      vertex 90 90 80
      vertex 110 90 80
      vertex 90 95 80
    endloop
  endfacet
  facet normal 0 0 1
    outer loop
      vertex 110 85 80
      vertex 90 85 80
      vertex 110 80 80
    endloop
  endfacet
  facet normal 0 0 1
    outer loop
      vertex 90 75 80
      vertex 110 75 80
      vertex 90 80 80
    endloop
  endfacet
  facet normal 0 0 1
    outer loop
      vertex 110 70 80
      vertex 90 70 80
      vertex 110 65 80
    endloop
  endfacet
  facet normal 0 0 1
    outer loop
      vertex 90 65 80
      vertex 110 65 80
      vertex 90 70 80
    endloop
  endfacet
  facet normal 0 0 1
    outer loop
      vertex 110 65 80
      vertex 90 65 80
      vertex 110 60 80
    endloop
  endfacet
  facet normal 0 0 1
    outer loop
      vertex 90 60 80
      vertex 110 60 80
      vertex 90 65 80
    endloop
  endfacet
  facet normal 0 0 1
    outer loop
      vertex 110 60 80
      vertex 90 60 80
      vertex 110 55 80
    endloop
  endfacet
  facet normal 0 0 1
    outer loop
      vertex 90 55 80
      vertex 110 55 80
      vertex 90 60 80
    endloop
  endfacet
  facet normal 0 0 1
    outer loop
      vertex 110 55 80
      vertex 90 55 80
      vertex 110 50 80
    endloop
  endfacet
  facet normal 0 0 1
    outer loop
      vertex 90 50 80
      vertex 110 50 80
      vertex 90 55 80
    endloop
  endfacet
  facet normal 0 0 1
    outer loop
      vertex 110 50 80
      vertex 90 50 80
      vertex 110 45 80
    endloop
  endfacet
  facet normal 0 0 1
    outer loop
      vertex 90 45 80
      vertex 110 45 80
      vertex 90 50 80
    endloop
  endfacet
  facet normal 0 0 1
    outer loop
      vertex 110 45 80
      vertex 90 45 80
      vertex 110 40 80
    endloop
  endfacet
  facet normal 0 0 1
    outer loop
      vertex 90 40 80
      vertex 110 40 80
      vertex 90 45 80
    endloop
  endfacet
  facet normal 0 0 1
    outer loop
      vertex 110 40 80
      vertex 90 40 80
      vertex 110 35 80
    endloop
  endfacet
  facet normal 0 0 1
    outer loop
      vertex 90 35 80
      vertex 110 35 80
      vertex 90 40 80
    endloop
  endfacet
  facet normal 0 0 1
    outer loop
      vertex 110 35 80
      vertex 90 35 80
      vertex 110 30 80
    endloop
  endfacet
  facet normal 0 0 1
    outer loop
      vertex 90 30 80
      vertex 110 30 80
      vertex 90 35 80
    endloop
  endfacet
  facet normal 0 0 1
    outer loop
      vertex 110 30 80
      vertex 90 30 80
      vertex 200 0 80
    endloop
  endfacet
  facet normal 0 0 1
    outer loop
      vertex 0 0 80
      vertex 90 30 80
      vertex 40 30 80
    endloop
  endfacet
  facet normal 0 0 1
    outer loop
      vertex 90 30 80
      vertex 0 0 80
      vertex 200 0 80
    endloop
  endfacet
  facet normal 0 0 1
    outer loop
      vertex 40 35 80
      vertex 0 0 80
      vertex 40 30 80
    endloop
  endfacet
  facet normal 1 -0 0
    outer loop
      vertex 200 0 80
      vertex 200 200 75
      vertex 200 200 80
    endloop
  endfacet
  facet normal 1 0 0
    outer loop
      vertex 200 200 75
      vertex 200 0 80
      vertex 200 0 75
    endloop
  endfacet
  facet normal 0 0 -1
    outer loop
      vertex 40 165 75
      vertex 90 170 75
      vertex 90 165 75
    endloop
  endfacet
  facet normal -0 0 -1
    outer loop
      vertex 90 170 75
      vertex 40 165 75
      vertex 40 170 75
    endloop
  endfacet
  facet normal 0 0 -1
    outer loop
      vertex 40 155 75
      vertex 90 160 75
      vertex 90 155 75
    endloop
  endfacet
  facet normal -0 0 -1
    outer loop
      vertex 90 160 75
      vertex 40 155 75
      vertex 40 160 75
    endloop
  endfacet
  facet normal 0 0 -1
    outer loop
      vertex 40 145 75
      vertex 90 150 75
      vertex 90 145 75
    endloop
  endfacet
  facet normal -0 0 -1
    outer loop
      vertex 90 150 75
      vertex 40 145 75
      vertex 40 150 75
    endloop
  endfacet
  facet normal 0 0 -1
    outer loop
      vertex 40 135 75
      vertex 90 140 75
      vertex 90 135 75
    endloop
  endfacet
  facet normal -0 0 -1
    outer loop
      vertex 90 140 75
      vertex 40 135 75
      vertex 40 140 75
    endloop
  endfacet
  facet normal 0 0 -1
    outer loop
      vertex 40 125 75
      vertex 90 130 75
      vertex 90 125 75
    endloop
  endfacet
  facet normal -0 0 -1
    outer loop
      vertex 90 130 75
      vertex 40 125 75
      vertex 40 130 75
    endloop
  endfacet
  facet normal 0 0 -1
    outer loop
      vertex 40 115 75
      vertex 90 120 75
      vertex 90 115 75
    endloop
  endfacet
  facet normal -0 0 -1
    outer loop
      vertex 90 120 75
      vertex 40 115 75
      vertex 40 120 75
    endloop
  endfacet
  facet normal 0 0 -1
    outer loop
      vertex 40 105 75
      vertex 90 110 75
      vertex 90 105 75
    endloop
  endfacet
  facet normal -0 0 -1
    outer loop
      vertex 90 110 75
      vertex 40 105 75
      vertex 40 110 75
    endloop
  endfacet
  facet normal 0 0 -1
    outer loop
      vertex 40 95 75
      vertex 90 100 75
      vertex 90 95 75
    endloop
  endfacet
  facet normal -0 0 -1
    outer loop
      vertex 90 100 75
      vertex 40 95 75
      vertex 40 100 75
    endloop
  endfacet
  facet normal 0 0 -1
    outer loop
      vertex 40 85 75
      vertex 90 90 75
      vertex 90 85 75
    endloop
  endfacet
  facet normal -0 0 -1
    outer loop
      vertex 90 90 75
      vertex 40 85 75
      vertex 40 90 75
    endloop
  endfacet
  facet normal 0 0 -1
    outer loop
      vertex 40 75 75
      vertex 90 80 75
      vertex 90 75 75
    endloop
  endfacet
  facet normal -0 0 -1
    outer loop
      vertex 90 80 75
      vertex 40 75 75
      vertex 40 80 75
    endloop
  endfacet
  facet normal 0 0 -1
    outer loop
      vertex 40 65 75
      vertex 90 70 75
      vertex 90 65 75
    endloop
  endfacet
  facet normal -0 0 -1
    outer loop
      vertex 90 70 75
      vertex 40 65 75
      vertex 40 70 75
    endloop
  endfacet
  facet normal 0 0 -1
    outer loop
      vertex 40 55 75
      vertex 90 60 75
      vertex 90 55 75
    endloop
  endfacet
  facet normal -0 0 -1
    outer loop
      vertex 90 60 75
      vertex 40 55 75
      vertex 40 60 75
    endloop
  endfacet
  facet normal 0 0 -1
    outer loop
      vertex 40 45 75
      vertex 90 50 75
      vertex 90 45 75
    endloop
  endfacet
  facet normal -0 0 -1
    outer loop
      vertex 90 50 75
      vertex 40 45 75
      vertex 40 50 75
    endloop
  endfacet
  facet normal 0 0 -1
    outer loop
      vertex 40 35 75
      vertex 90 40 75
      vertex 90 35 75
    endloop
  endfacet
  facet normal -0 0 -1
    outer loop
      vertex 90 40 75
      vertex 40 35 75
      vertex 40 40 75
    endloop
  endfacet
  facet normal 0 0 -1
    outer loop
      vertex 110 165 75
      vertex 160 170 75
      vertex 160 165 75
    endloop
  endfacet
  facet normal -0 0 -1
    outer loop
      vertex 160 170 75
      vertex 110 165 75
      vertex 110 170 75
    endloop
  endfacet
  facet normal 0 0 -1
    outer loop
      vertex 110 155 75
      vertex 160 160 75
      vertex 160 155 75
    endloop
  endfacet
  facet normal -0 0 -1
    outer loop
      vertex 160 160 75
      vertex 110 155 75
      vertex 110 160 75
    endloop
  endfacet
  facet normal 0 0 -1
    outer loop
      vertex 110 145 75
      vertex 160 150 75
      vertex 160 145 75
    endloop
  endfacet
  facet normal -0 0 -1
    outer loop
      vertex 160 150 75
      vertex 110 145 75
      vertex 110 150 75
    endloop
  endfacet
  facet normal 0 0 -1
    outer loop
      vertex 110 135 75
      vertex 160 140 75
      vertex 160 135 75
    endloop
  endfacet
  facet normal -0 0 -1
    outer loop
      vertex 160 140 75
      vertex 110 135 75
      vertex 110 140 75
    endloop
  endfacet
  facet normal 0 0 -1
    outer loop
      vertex 110 125 75
      vertex 160 130 75
      vertex 160 125 75
    endloop
  endfacet
  facet normal -0 0 -1
    outer loop
      vertex 160 130 75
      vertex 110 125 75
      vertex 110 130 75
    endloop
  endfacet
  facet normal 0 0 -1
    outer loop
      vertex 110 115 75
      vertex 160 120 75
      vertex 160 115 75
    endloop
  endfacet
  facet normal -0 0 -1
    outer loop
      vertex 160 120 75
      vertex 110 115 75
      vertex 110 120 75
    endloop
  endfacet
  facet normal 0 0 -1
    outer loop
      vertex 110 105 75
      vertex 160 110 75
      vertex 160 105 75
    endloop
  endfacet
  facet normal -0 0 -1
    outer loop
      vertex 160 110 75
      vertex 110 105 75
      vertex 110 110 75
    endloop
  endfacet
  facet normal 0 0 -1
    outer loop
      vertex 110 95 75
      vertex 160 100 75
      vertex 160 95 75
    endloop
  endfacet
  facet normal -0 0 -1
    outer loop
      vertex 160 100 75
      vertex 110 95 75
      vertex 110 100 75
    endloop
  endfacet
  facet normal 0 0 -1
    outer loop
      vertex 110 85 75
      vertex 160 90 75
      vertex 160 85 75
    endloop
  endfacet
  facet normal -0 0 -1
    outer loop
      vertex 160 90 75
      vertex 110 85 75
      vertex 110 90 75
    endloop
  endfacet
  facet normal 0 0 -1
    outer loop
      vertex 110 75 75
      vertex 160 80 75
      vertex 160 75 75
    endloop
  endfacet
  facet normal -0 0 -1
    outer loop
      vertex 160 80 75
      vertex 110 75 75
      vertex 110 80 75
    endloop
  endfacet
  facet normal 0 0 -1
    outer loop
      vertex 110 65 75
      vertex 160 70 75
      vertex 160 65 75
    endloop
  endfacet
  facet normal -0 0 -1
    outer loop
      vertex 160 70 75
      vertex 110 65 75
      vertex 110 70 75
    endloop
  endfacet
  facet normal 0 0 -1
    outer loop
      vertex 110 55 75
      vertex 160 60 75
      vertex 160 55 75
    endloop
  endfacet
  facet normal -0 0 -1
    outer loop
      vertex 160 60 75
      vertex 110 55 75
      vertex 110 60 75
    endloop
  endfacet
  facet normal 0 0 -1
    outer loop
      vertex 110 45 75
      vertex 160 50 75
      vertex 160 45 75
    endloop
  endfacet
  facet normal -0 0 -1
    outer loop
      vertex 160 50 75
      vertex 110 45 75
      vertex 110 50 75
    endloop
  endfacet
  facet normal 0 0 -1
    outer loop
      vertex 110 35 75
      vertex 160 40 75
      vertex 160 35 75
    endloop
  endfacet
  facet normal -0 0 -1
    outer loop
      vertex 160 40 75
      vertex 110 35 75
      vertex 110 40 75
    endloop
  endfacet
  facet normal 0 0 -1
    outer loop
      vertex 160 35 75
      vertex 200 0 75
      vertex 160 30 75
    endloop
  endfacet
  facet normal 0 0 -1
    outer loop
      vertex 200 0 75
      vertex 110 30 75
      vertex 160 30 75
    endloop
  endfacet
  facet normal 0 0 -1
    outer loop
      vertex 90 35 75
      vertex 110 35 75
      vertex 110 30 75
    endloop
  endfacet
  facet normal 0 0 -1
    outer loop
      vertex 110 35 75
      vertex 90 35 75
      vertex 110 40 75
    endloop
  endfacet
  facet normal 0 0 -1
    outer loop
      vertex 110 40 75
      vertex 90 40 75
      vertex 110 45 75
    endloop
  endfacet
  facet normal 0 0 -1
    outer loop
      vertex 90 45 75
      vertex 110 45 75
      vertex 90 40 75
    endloop
  endfacet
  facet normal 0 0 -1
    outer loop
      vertex 90 50 75
      vertex 110 50 75
      vertex 90 45 75
    endloop
  endfacet
  facet normal 0 0 -1
    outer loop
      vertex 110 50 75
      vertex 90 50 75
      vertex 110 55 75
    endloop
  endfacet
  facet normal 0 0 -1
    outer loop
      vertex 110 55 75
      vertex 90 55 75
      vertex 110 60 75
    endloop
  endfacet
  facet normal 0 0 -1
    outer loop
      vertex 90 60 75
      vertex 110 60 75
      vertex 90 55 75
    endloop
  endfacet
  facet normal 0 0 -1
    outer loop
      vertex 90 65 75
      vertex 110 65 75
      vertex 90 60 75
    endloop
  endfacet
  facet normal 0 0 -1
    outer loop
      vertex 110 65 75
      vertex 90 65 75
      vertex 110 70 75
    endloop
  endfacet
  facet normal 0 0 -1
    outer loop
      vertex 110 70 75
      vertex 90 70 75
      vertex 110 75 75
    endloop
  endfacet
  facet normal 0 0 -1
    outer loop
      vertex 90 75 75
      vertex 110 75 75
      vertex 90 70 75
    endloop
  endfacet
  facet normal 0 0 -1
    outer loop
      vertex 90 80 75
      vertex 110 80 75
      vertex 90 75 75
    endloop
  endfacet
  facet normal 0 0 -1
    outer loop
      vertex 110 80 75
      vertex 90 80 75
      vertex 110 85 75
    endloop
  endfacet
  facet normal 0 0 -1
    outer loop
      vertex 110 85 75
      vertex 90 85 75
      vertex 110 90 75
    endloop
  endfacet
  facet normal 0 0 -1
    outer loop
      vertex 90 90 75
      vertex 110 90 75
      vertex 90 85 75
    endloop
  endfacet
  facet normal 0 0 -1
    outer loop
      vertex 90 95 75
      vertex 110 95 75
      vertex 90 90 75
    endloop
  endfacet
  facet normal 0 0 -1
    outer loop
      vertex 110 95 75
      vertex 90 95 75
      vertex 110 100 75
    endloop
  endfacet
  facet normal 0 0 -1
    outer loop
      vertex 110 100 75
      vertex 90 100 75
      vertex 110 105 75
    endloop
  endfacet
  facet normal 0 0 -1
    outer loop
      vertex 90 105 75
      vertex 110 105 75
      vertex 90 100 75
    endloop
  endfacet
  facet normal 0 0 -1
    outer loop
      vertex 90 110 75
      vertex 110 110 75
      vertex 90 105 75
    endloop
  endfacet
  facet normal 0 0 -1
    outer loop
      vertex 110 110 75
      vertex 90 110 75
      vertex 110 115 75
    endloop
  endfacet
  facet normal 0 0 -1
    outer loop
      vertex 110 115 75
      vertex 90 115 75
      vertex 110 120 75
    endloop
  endfacet
  facet normal 0 0 -1
    outer loop
      vertex 90 120 75
      vertex 110 120 75
      vertex 90 115 75
    endloop
  endfacet
  facet normal 0 0 -1
    outer loop
      vertex 90 125 75
      vertex 110 125 75
      vertex 90 120 75
    endloop
  endfacet
  facet normal 0 0 -1
    outer loop
      vertex 110 125 75
      vertex 90 125 75
      vertex 110 130 75
    endloop
  endfacet
  facet normal 0 0 -1
    outer loop
      vertex 110 130 75
      vertex 90 130 75
      vertex 110 135 75
    endloop
  endfacet
  facet normal 0 0 -1
    outer loop
      vertex 90 135 75
      vertex 110 135 75
      vertex 90 130 75
    endloop
  endfacet
  facet normal 0 0 -1
    outer loop
      vertex 90 35 75
      vertex 110 30 75
      vertex 90 30 75
    endloop
  endfacet
  facet normal 0 0 -1
    outer loop
      vertex 200 0 75
      vertex 90 30 75
      vertex 110 30 75
    endloop
  endfacet
  facet normal 0 0 -1
    outer loop
      vertex 0 0 75
      vertex 90 30 75
      vertex 200 0 75
    endloop
  endfacet
  facet normal 0 0 -1
    outer loop
      vertex 0 0 75
      vertex 40 35 75
      vertex 40 30 75
    endloop
  endfacet
  facet normal -0 0 -1
    outer loop
      vertex 40 35 75
      vertex 0 0 75
      vertex 40 40 75
    endloop
  endfacet
  facet normal -0 0 -1
    outer loop
      vertex 40 40 75
      vertex 0 0 75
      vertex 40 45 75
    endloop
  endfacet
  facet normal -0 0 -1
    outer loop
      vertex 40 45 75
      vertex 0 0 75
      vertex 40 50 75
    endloop
  endfacet
  facet normal -0 0 -1
    outer loop
      vertex 40 50 75
      vertex 0 0 75
      vertex 40 55 75
    endloop
  endfacet
  facet normal -0 0 -1
    outer loop
      vertex 40 55 75
      vertex 0 0 75
      vertex 40 60 75
    endloop
  endfacet
  facet normal -0 0 -1
    outer loop
      vertex 40 60 75
      vertex 0 0 75
      vertex 40 65 75
    endloop
  endfacet
  facet normal -0 0 -1
    outer loop
      vertex 40 65 75
      vertex 0 0 75
      vertex 40 70 75
    endloop
  endfacet
  facet normal -0 0 -1
    outer loop
      vertex 40 70 75
      vertex 0 0 75
      vertex 40 75 75
    endloop
  endfacet
  facet normal -0 0 -1
    outer loop
      vertex 40 75 75
      vertex 0 0 75
      vertex 40 80 75
    endloop
  endfacet
  facet normal -0 0 -1
    outer loop
      vertex 40 80 75
      vertex 0 0 75
      vertex 40 85 75
    endloop
  endfacet
  facet normal -0 0 -1
    outer loop
      vertex 40 85 75
      vertex 0 0 75
      vertex 40 90 75
    endloop
  endfacet
  facet normal -0 0 -1
    outer loop
      vertex 40 90 75
      vertex 0 0 75
      vertex 40 95 75
    endloop
  endfacet
  facet normal -0 0 -1
    outer loop
      vertex 40 95 75
      vertex 0 0 75
      vertex 40 100 75
    endloop
  endfacet
  facet normal 0 0 -1
    outer loop
      vertex 0 200 75
      vertex 40 100 75
      vertex 0 0 75
    endloop
  endfacet
  facet normal 0 0 -1
    outer loop
      vertex 40 100 75
      vertex 0 200 75
      vertex 40 105 75
    endloop
  endfacet
  facet normal 0 0 -1
    outer loop
      vertex 40 105 75
      vertex 0 200 75
      vertex 40 110 75
    endloop
  endfacet
  facet normal 0 0 -1
    outer loop
      vertex 40 110 75
      vertex 0 200 75
      vertex 40 115 75
    endloop
  endfacet
  facet normal 0 0 -1
    outer loop
      vertex 40 115 75
      vertex 0 200 75
      vertex 40 120 75
    endloop
  endfacet
  facet normal 0 0 -1
    outer loop
      vertex 40 120 75
      vertex 0 200 75
      vertex 40 125 75
    endloop
  endfacet
  facet normal 0 0 -1
    outer loop
      vertex 40 125 75
      vertex 0 200 75
      vertex 40 130 75
    endloop
  endfacet
  facet normal 0 0 -1
    outer loop
      vertex 40 130 75
      vertex 0 200 75
      vertex 40 135 75
    endloop
  endfacet
  facet normal 0 0 -1
    outer loop
      vertex 40 135 75
      vertex 0 200 75
      vertex 40 140 75
    endloop
  endfacet
  facet normal 0 0 -1
    outer loop
      vertex 40 140 75
      vertex 0 200 75
      vertex 40 145 75
    endloop
  endfacet
  facet normal 0 0 -1
    outer loop
      vertex 40 145 75
      vertex 0 200 75
      vertex 40 150 75
    endloop
  endfacet
  facet normal 0 0 -1
    outer loop
      vertex 40 150 75
      vertex 0 200 75
      vertex 40 155 75
    endloop
  endfacet
  facet normal 0 0 -1
    outer loop
      vertex 40 155 75
      vertex 0 200 75
      vertex 40 160 75
    endloop
  endfacet
  facet normal 0 0 -1
    outer loop
      vertex 40 165 75
      vertex 0 200 75
      vertex 40 170 75
    endloop
  endfacet
  facet normal 0 0 -1
    outer loop
      vertex 40 160 75
      vertex 0 200 75
      vertex 40 165 75
    endloop
  endfacet
  facet normal -0 0 -1
    outer loop
      vertex 90 30 75
      vertex 0 0 75
      vertex 40 30 75
    endloop
  endfacet
  facet normal 0 0 -1
    outer loop
      vertex 160 40 75
      vertex 200 0 75
      vertex 160 35 75
    endloop
  endfacet
  facet normal 0 0 -1
    outer loop
      vertex 160 45 75
      vertex 200 0 75
      vertex 160 40 75
    endloop
  endfacet
  facet normal 0 0 -1
    outer loop
      vertex 160 50 75
      vertex 200 0 75
      vertex 160 45 75
    endloop
  endfacet
  facet normal 0 0 -1
    outer loop
      vertex 160 55 75
      vertex 200 0 75
      vertex 160 50 75
    endloop
  endfacet
  facet normal 0 0 -1
    outer loop
      vertex 160 60 75
      vertex 200 0 75
      vertex 160 55 75
    endloop
  endfacet
  facet normal 0 0 -1
    outer loop
      vertex 160 65 75
      vertex 200 0 75
      vertex 160 60 75
    endloop
  endfacet
  facet normal 0 0 -1
    outer loop
      vertex 160 70 75
      vertex 200 0 75
      vertex 160 65 75
    endloop
  endfacet
  facet normal 0 0 -1
    outer loop
      vertex 160 75 75
      vertex 200 0 75
      vertex 160 70 75
    endloop
  endfacet
  facet normal 0 0 -1
    outer loop
      vertex 160 80 75
      vertex 200 0 75
      vertex 160 75 75
    endloop
  endfacet
  facet normal 0 0 -1
    outer loop
      vertex 160 85 75
      vertex 200 0 75
      vertex 160 80 75
    endloop
  endfacet
  facet normal 0 0 -1
    outer loop
      vertex 160 90 75
      vertex 200 0 75
      vertex 160 85 75
    endloop
  endfacet
  facet normal 0 0 -1
    outer loop
      vertex 160 95 75
      vertex 200 0 75
      vertex 160 90 75
    endloop
  endfacet
  facet normal 0 0 -1
    outer loop
      vertex 160 100 75
      vertex 200 0 75
      vertex 160 95 75
    endloop
  endfacet
  facet normal 0 0 -1
    outer loop
      vertex 200 0 75
      vertex 160 100 75
      vertex 200 200 75
    endloop
  endfacet
  facet normal 0 0 -1
    outer loop
      vertex 160 105 75
      vertex 200 200 75
      vertex 160 100 75
    endloop
  endfacet
  facet normal 0 0 -1
    outer loop
      vertex 160 110 75
      vertex 200 200 75
      vertex 160 105 75
    endloop
  endfacet
  facet normal 0 0 -1
    outer loop
      vertex 160 115 75
      vertex 200 200 75
      vertex 160 110 75
    endloop
  endfacet
  facet normal 0 0 -1
    outer loop
      vertex 160 120 75
      vertex 200 200 75
      vertex 160 115 75
    endloop
  endfacet
  facet normal 0 0 -1
    outer loop
      vertex 160 125 75
      vertex 200 200 75
      vertex 160 120 75
    endloop
  endfacet
  facet normal 0 0 -1
    outer loop
      vertex 160 130 75
      vertex 200 200 75
      vertex 160 125 75
    endloop
  endfacet
  facet normal 0 0 -1
    outer loop
      vertex 160 135 75
      vertex 200 200 75
      vertex 160 130 75
    endloop
  endfacet
  facet normal 0 0 -1
    outer loop
      vertex 160 140 75
      vertex 200 200 75
      vertex 160 135 75
    endloop
  endfacet
  facet normal 0 0 -1
    outer loop
      vertex 160 145 75
      vertex 200 200 75
      vertex 160 140 75
    endloop
  endfacet
  facet normal 0 0 -1
    outer loop
      vertex 160 150 75
      vertex 200 200 75
      vertex 160 145 75
    endloop
  endfacet
  facet normal 0 0 -1
    outer loop
      vertex 160 155 75
      vertex 200 200 75
      vertex 160 150 75
    endloop
  endfacet
  facet normal 0 0 -1
    outer loop
      vertex 160 160 75
      vertex 200 200 75
      vertex 160 155 75
    endloop
  endfacet
  facet normal 0 0 -1
    outer loop
      vertex 160 165 75
      vertex 200 200 75
      vertex 160 160 75
    endloop
  endfacet
  facet normal 0 0 -1
    outer loop
      vertex 160 170 75
      vertex 200 200 75
      vertex 160 165 75
    endloop
  endfacet
  facet normal 0 0 -1
    outer loop
      vertex 160 175 75
      vertex 200 200 75
      vertex 160 170 75
    endloop
  endfacet
  facet normal 0 0 -1
    outer loop
      vertex 110 175 75
      vertex 200 200 75
      vertex 160 175 75
    endloop
  endfacet
  facet normal -0 0 -1
    outer loop
      vertex 110 40 75
      vertex 90 35 75
      vertex 90 40 75
    endloop
  endfacet
  facet normal 0 0 -1
    outer loop
      vertex 110 45 75
      vertex 90 45 75
      vertex 110 50 75
    endloop
  endfacet
  facet normal 0 0 -1
    outer loop
      vertex 90 55 75
      vertex 110 55 75
      vertex 90 50 75
    endloop
  endfacet
  facet normal 0 0 -1
    outer loop
      vertex 110 60 75
      vertex 90 60 75
      vertex 110 65 75
    endloop
  endfacet
  facet normal 0 0 -1
    outer loop
      vertex 90 70 75
      vertex 110 70 75
      vertex 90 65 75
    endloop
  endfacet
  facet normal 0 0 -1
    outer loop
      vertex 110 75 75
      vertex 90 75 75
      vertex 110 80 75
    endloop
  endfacet
  facet normal 0 0 -1
    outer loop
      vertex 90 85 75
      vertex 110 85 75
      vertex 90 80 75
    endloop
  endfacet
  facet normal 0 0 -1
    outer loop
      vertex 110 90 75
      vertex 90 90 75
      vertex 110 95 75
    endloop
  endfacet
  facet normal 0 0 -1
    outer loop
      vertex 90 100 75
      vertex 110 100 75
      vertex 90 95 75
    endloop
  endfacet
  facet normal 0 0 -1
    outer loop
      vertex 110 105 75
      vertex 90 105 75
      vertex 110 110 75
    endloop
  endfacet
  facet normal 0 0 -1
    outer loop
      vertex 90 115 75
      vertex 110 115 75
      vertex 90 110 75
    endloop
  endfacet
  facet normal 0 0 -1
    outer loop
      vertex 110 120 75
      vertex 90 120 75
      vertex 110 125 75
    endloop
  endfacet
  facet normal 0 0 -1
    outer loop
      vertex 90 130 75
      vertex 110 130 75
      vertex 90 125 75
    endloop
  endfacet
  facet normal 0 0 -1
    outer loop
      vertex 110 135 75
      vertex 90 135 75
      vertex 110 140 75
    endloop
  endfacet
  facet normal 0 0 -1
    outer loop
      vertex 90 140 75
      vertex 110 140 75
      vertex 90 135 75
    endloop
  endfacet
  facet normal 0 0 -1
    outer loop
      vertex 110 140 75
      vertex 90 140 75
      vertex 110 145 75
    endloop
  endfacet
  facet normal 0 0 -1
    outer loop
      vertex 90 145 75
      vertex 110 145 75
      vertex 90 140 75
    endloop
  endfacet
  facet normal 0 0 -1
    outer loop
      vertex 110 145 75
      vertex 90 145 75
      vertex 110 150 75
    endloop
  endfacet
  facet normal 0 0 -1
    outer loop
      vertex 90 150 75
      vertex 110 150 75
      vertex 90 145 75
    endloop
  endfacet
  facet normal 0 0 -1
    outer loop
      vertex 110 150 75
      vertex 90 150 75
      vertex 110 155 75
    endloop
  endfacet
  facet normal 0 0 -1
    outer loop
      vertex 90 155 75
      vertex 110 155 75
      vertex 90 150 75
    endloop
  endfacet
  facet normal 0 0 -1
    outer loop
      vertex 110 155 75
      vertex 90 155 75
      vertex 110 160 75
    endloop
  endfacet
  facet normal 0 0 -1
    outer loop
      vertex 90 160 75
      vertex 110 160 75
      vertex 90 155 75
    endloop
  endfacet
  facet normal 0 0 -1
    outer loop
      vertex 110 160 75
      vertex 90 160 75
      vertex 110 165 75
    endloop
  endfacet
  facet normal 0 0 -1
    outer loop
      vertex 90 165 75
      vertex 110 165 75
      vertex 90 160 75
    endloop
  endfacet
  facet normal 0 0 -1
    outer loop
      vertex 110 165 75
      vertex 90 165 75
      vertex 110 170 75
    endloop
  endfacet
  facet normal 0 0 -1
    outer loop
      vertex 90 170 75
      vertex 110 170 75
      vertex 90 165 75
    endloop
  endfacet
  facet normal 0 0 -1
    outer loop
      vertex 110 170 75
      vertex 90 170 75
      vertex 110 175 75
    endloop
  endfacet
  facet normal 0 0 -1
    outer loop
      vertex 90 175 75
      vertex 110 175 75
      vertex 90 170 75
    endloop
  endfacet
  facet normal 0 0 -1
    outer loop
      vertex 110 175 75
      vertex 90 175 75
      vertex 200 200 75
    endloop
  endfacet
  facet normal 0 0 -1
    outer loop
      vertex 0 200 75
      vertex 90 175 75
      vertex 40 175 75
    endloop
  endfacet
  facet normal 0 0 -1
    outer loop
      vertex 90 175 75
      vertex 0 200 75
      vertex 200 200 75
    endloop
  endfacet
  facet normal 0 0 -1
    outer loop
      vertex 40 170 75
      vertex 0 200 75
      vertex 40 175 75
    endloop
  endfacet
  facet normal 0 -1 0
    outer loop
      vertex 0 0 75
      vertex 200 0 80
      vertex 0 0 80
    endloop
  endfacet
  facet normal 0 -1 -0
    outer loop
      vertex 200 0 80
      vertex 0 0 75
      vertex 200 0 75
    endloop
  endfacet
  facet normal 0 1 -0
    outer loop
      vertex 200 200 75
      vertex 0 200 80
      vertex 200 200 80
    endloop
  endfacet
  facet normal 0 1 0
    outer loop
      vertex 0 200 80
      vertex 200 200 75
      vertex 0 200 75
    endloop
  endfacet
endsolid OpenSCAD_Model
